<svg width="20" height="16" viewBox="0 0 20 16" fill="none" xmlns="http://www.w3.org/2000/svg">
<path fill-rule="evenodd" clip-rule="evenodd" d="M5.53323 3.60208L9.8 0.403448C11.1185 -0.584958 13 0.355379 13 2.00272V13.9973C13 15.6446 11.1185 16.585 9.8 15.5966L5.53323 12.3979C5.1871 12.1384 4.76617 11.9982 4.33358 11.9982H2C0.895431 11.9982 0 11.1032 0 9.99909V6.00091C0 4.89684 0.895431 4.00181 2 4.00181H4.33358C4.76617 4.00181 5.1871 3.86156 5.53323 3.60208ZM15.3992 2.36499C14.9933 2.28259 14.5974 2.54487 14.515 2.9508C14.4326 3.35674 14.6949 3.75261 15.1008 3.83501C17.0404 4.22873 18.5 5.94474 18.5 7.99998C18.5 10.0552 17.0404 11.7712 15.1008 12.165C14.6949 12.2474 14.4326 12.6432 14.515 13.0492C14.5974 13.4551 14.9933 13.7174 15.3992 13.635C18.0241 13.1021 20 10.7827 20 7.99998C20 5.21731 18.0241 2.89782 15.3992 2.36499ZM15.6256 5.61834C15.267 5.41093 14.8082 5.53346 14.6008 5.892C14.3934 6.25055 14.5159 6.70934 14.8745 6.91675C15.2501 7.13401 15.5 7.53825 15.5 7.99998C15.5 8.46171 15.2501 8.86595 14.8745 9.08321C14.5159 9.29062 14.3934 9.74942 14.6008 10.108C14.8082 10.4665 15.267 10.589 15.6256 10.3816C16.4456 9.90727 17 9.01881 17 7.99998C17 6.98115 16.4456 6.0927 15.6256 5.61834Z" fill="white"/>
</svg>
