<svg width="22" height="14" viewBox="0 0 22 14" fill="none" xmlns="http://www.w3.org/2000/svg">
<path d="M19.2182 4.75864C21.2883 4.52974 22.077 3.34582 21.9941 2.17681C21.9274 1.22819 21.0753 -0.26342 18.9546 0.0400118C17.6937 0.219941 16.2971 1.22925 15.6559 2.91463C14.779 1.86593 13.334 0.851292 11.6427 0.744825C8.2621 0.554249 4.61793 2.95828 3.41074 6.86882C3.36717 7.04402 3.33518 7.22184 3.31499 7.40116C1.89907 8.63724 0.0947411 10.7815 5.95793e-05 13.7519C-0.000659374 13.7841 0.00513477 13.816 0.0170999 13.8459C0.0290651 13.8758 0.0469588 13.903 0.0697247 13.9259C0.0924905 13.9488 0.119667 13.967 0.14965 13.9794C0.179633 13.9917 0.211814 13.998 0.244295 13.9979H3.39676C3.42924 13.998 3.46141 13.9917 3.49135 13.9793C3.52129 13.9668 3.54838 13.9485 3.571 13.9254C3.59361 13.9023 3.61127 13.875 3.62293 13.845C3.63459 13.815 3.64 13.783 3.63884 13.7509C3.61302 12.9588 3.63023 10.4365 4.76749 8.82995C5.59437 9.48877 6.50659 10.0352 7.4799 10.4546C7.13905 11.523 6.95781 12.6349 6.94193 13.7551C6.94136 13.7871 6.94723 13.8188 6.95919 13.8485C6.97116 13.8782 6.98898 13.9052 7.01161 13.928C7.03425 13.9508 7.06125 13.9689 7.09103 13.9813C7.12082 13.9936 7.1528 14 7.18509 14H11.4006C11.4311 14.0001 11.461 13.9922 11.4874 13.9771C11.5138 13.962 11.5357 13.9402 11.5508 13.914C11.5659 13.8878 11.5737 13.8581 11.5734 13.828C11.5731 13.7978 11.5647 13.7683 11.549 13.7423C11.279 13.2973 10.7088 12.3498 10.4365 11.3436C10.8422 11.416 11.2585 11.4789 11.7018 11.5161C13.3207 11.648 14.9354 11.2173 16.2681 10.2981C16.2573 11.6247 15.7516 13.0301 15.4611 13.6593C15.4441 13.6958 15.4366 13.7359 15.4394 13.776C15.4423 13.8161 15.4553 13.8548 15.4773 13.8886C15.4993 13.9224 15.5296 13.9501 15.5653 13.9692C15.601 13.9883 15.6411 13.9982 15.6817 13.9979H19.8197C19.8521 13.9977 19.8841 13.9912 19.914 13.9788C19.9438 13.9663 19.9709 13.9481 19.9936 13.9253C20.0163 13.9024 20.0342 13.8753 20.0463 13.8456C20.0584 13.8158 20.0644 13.784 20.0639 13.7519C20.0058 10.9518 18.8858 9.15467 17.9357 8.1262C16.6543 6.64844 17.1073 4.9918 19.2182 4.75864ZM18.7212 1.11427C18.8665 1.11427 19.0086 1.15691 19.1294 1.23682C19.2503 1.31672 19.3445 1.43029 19.4001 1.56316C19.4557 1.69603 19.4703 1.84224 19.4419 1.9833C19.4136 2.12436 19.3436 2.25393 19.2408 2.35563C19.138 2.45732 19.0071 2.52658 18.8645 2.55464C18.722 2.5827 18.5742 2.56829 18.44 2.51326C18.3057 2.45822 18.1909 2.36502 18.1102 2.24543C18.0294 2.12585 17.9863 1.98526 17.9863 1.84144C17.9862 1.7459 18.0051 1.65128 18.042 1.563C18.0788 1.47471 18.133 1.39449 18.2012 1.32694C18.2695 1.25939 18.3506 1.20583 18.4398 1.16933C18.529 1.13284 18.6246 1.11413 18.7212 1.11427ZM8.36538 8.47435C7.62515 8.29229 5.99835 7.20845 5.66481 6.87734C5.87246 5.69129 7.21522 4.32212 7.99311 3.7142C8.90633 3.00631 10.0297 2.61569 11.1897 2.60268C12.7186 2.6442 13.5696 3.63541 14.0947 4.31574C14.1668 4.40836 14.1463 4.55955 14.0291 4.57339C12.8563 4.72354 11.7322 5.13093 10.7389 5.76582C9.77162 6.40782 8.97651 7.36922 8.36538 8.47435ZM13.4072 9.73173C12.313 10.0117 10.8454 9.74557 10.7066 9.27285C10.5678 8.80014 11.7459 7.78231 13.5825 7.50975C14.9016 7.31598 15.6623 7.53211 15.8291 7.97289C16.0314 8.51055 14.8747 9.3559 13.4072 9.73173Z" fill="#068E33"/>
</svg>
