<svg width="23" height="23" viewBox="0 0 23 23" fill="none" xmlns="http://www.w3.org/2000/svg">
<path fill-rule="evenodd" clip-rule="evenodd" d="M4.17819 3.19987C3.90807 2.92976 3.47013 2.92976 3.20002 3.19987C2.92991 3.46998 2.92991 3.90792 3.20002 4.17803L6.40149 7.3795H5.53337C4.51471 7.3795 3.68893 8.20491 3.68893 9.22311V12.9103C3.68893 13.9285 4.51471 14.7539 5.53337 14.7539H7.56253C8.04126 14.7539 8.50709 14.9092 8.89014 15.1963L12.7267 18.0724C13.9272 18.9724 15.6339 18.1385 15.677 16.655L17.9556 18.9336C18.2257 19.2037 18.6636 19.2037 18.9337 18.9336C19.2039 18.6635 19.2039 18.2255 18.9337 17.9554L4.17819 3.19987ZM15.6778 5.5359V12.8551L9.38724 6.56447L12.7267 4.06101C13.9426 3.14948 15.6778 4.01668 15.6778 5.5359Z" fill="white"/>
</svg>
